#!OML:ASF E:\emotionWalksFemale\Project 1\Capture day 1\Session 1\Female1.ASF
:FULLY-SPECIFIED
:DEGREES
1432
root 9.63833 15.6255 -24.073 360.073 6.73738 -364.831
lowerback 6.52648 -0.194246 4.05905
upperback -4.58361 0.419899 3.26363
thorax -8.52012 0.0807113 1.11837
lowerneck -6.77851 -4.17843 -3.74558
upperneck 5.20986 -5.40264 2.53554
head 3.05811 -2.67027 1.21785
rclavicle 5.96354e-016 -2.3059e-014
rhumerus -44.6609 -2.70525 -75.0312
rradius 35.2567
rwrist 12.038
rhand 4.51217 -54.6442
rfingers 7.12502
rthumb 29.9046 -802.249
lclavicle 5.96354e-016 -2.3059e-014
lhumerus -50.2833 -1.40614 85.8686
lradius 38.6691
lwrist -15.5165
lhand -0.859767 -33.8216
lfingers 7.12502
lthumb 24.7666 -5.40512
rfemur 0.466156 20.1833 31.3191
rtibia 1.49089e-014
rfoot -12.2538 -35.1597
rtoes 7.21176
lfemur -7.45065 4.24908 -11.6394
ltibia 63.4299
lfoot 1.82969 2.56187
ltoes -13.3558
1433
root 9.62192 15.6171 -23.9771 359.89 6.86367 -365.222
lowerback 6.68108 -0.186818 4.40594
upperback -4.53467 0.487213 3.42442
thorax -8.55943 0.0988656 1.08619
lowerneck -6.72027 -4.25413 -3.87304
upperneck 5.21807 -5.4974 2.58224
head 3.05993 -2.71878 1.25158
rclavicle 1.76918e-014 2.62396e-014
rhumerus -44.0285 -2.55489 -74.8054
rradius 34.6679
rwrist 12.4355
rhand 4.05107 -54.1648
rfingers 7.12502
rthumb 29.4645 -801.848
lclavicle 1.76918e-014 2.62396e-014
lhumerus -50.2133 -0.915389 85.4572
lradius 38.2173
lwrist -15.922
lhand -1.90125 -33.7306
lfingers 7.12502
lthumb 23.7681 -5.18057
rfemur 1.04778 20.0589 32.0512
rtibia 2.10712e-014
rfoot -12.7129 -35.1184
rtoes 7.24559
lfemur -8.87325 4.47426 -11.0939
ltibia 65.5281
lfoot 1.13392 2.45029
ltoes -13.8532
1434
root 9.60561 15.6056 -23.8838 359.679 6.91115 -365.419
lowerback 6.95839 -0.153762 4.62721
upperback -4.47731 0.576722 3.47886
thorax -8.65956 0.130623 1.00872
lowerneck -6.59813 -4.31464 -4.13699
upperneck 5.1455 -5.57742 2.87781
head 3.03711 -2.75432 1.39365
rclavicle 7.30534e-015 2.38542e-014
rhumerus -43.367 -2.43696 -74.6546
rradius 34.0751
rwrist 12.9517
rhand 3.6341 -54.001
rfingers 7.12502
rthumb 29.0663 -801.753
lclavicle 7.30534e-015 2.38542e-014
lhumerus -50.039 -0.269853 84.8285
lradius 37.568
lwrist -16.4868
lhand -3.00387 -33.8563
lfingers 7.12502
lthumb 22.7103 -5.17277
rfemur 1.71045 19.9955 32.6114
rtibia 4.37326e-015
rfoot -13.0978 -35.0858
rtoes 7.25729
lfemur -10.141 4.68671 -10.8019
ltibia 67.4314
lfoot 0.138062 2.32985
ltoes -15.3854
1435
root 9.58539 15.6003 -23.7963 359.679 6.92876 -365.528
lowerback 7.26741 -0.17145 4.74374
upperback -4.44552 0.592729 3.54418
thorax -8.8077 0.132164 1.01249
lowerneck -6.99104 -4.33619 -4.40356
upperneck 5.30423 -5.57902 3.04295
head 3.18403 -2.75169 1.48764
rclavicle -5.46658e-015 -6.36111e-015
rhumerus -42.484 -2.25061 -74.5364
rradius 33.3422
rwrist 13.6938
rhand 2.83578 -53.6302
rfingers 7.12502
rthumb 28.3036 -801.512
lclavicle -5.46658e-015 -6.36111e-015
lhumerus -49.8367 0.586249 84.1185
lradius 37.0048
lwrist -16.914
lhand -3.88868 -33.8483
lfingers 7.12502
lthumb 21.8609 -5.06321
rfemur 2.08385 20.0025 32.9922
rtibia -3.02153e-014
rfoot -13.1854 -35.0844
rtoes 7.23432
lfemur -11.6897 4.93252 -10.6311
ltibia 69.1395
lfoot -0.785096 2.20721
ltoes -14.8093
1436
root 9.56764 15.6024 -23.7058 359.761 6.89863 -365.487
lowerback 7.11852 -0.00633616 4.70557
upperback -4.44782 0.788827 3.42159
thorax -8.71653 0.226702 0.873653
lowerneck -6.60991 -4.48795 -4.20493
upperneck 5.17281 -5.81793 3.09047
head 3.06995 -2.86748 1.46258
rclavicle -3.32964e-015 2.70347e-014
rhumerus -41.9534 -2.80465 -74.3078
rradius 32.55
rwrist 15.0851
rhand 1.78629 -53.2346
rfingers 7.12502
rthumb 27.3002 -801.278
lclavicle -3.32964e-015 2.70347e-014
lhumerus -49.8367 0.923353 83.3814
lradius 36.6409
lwrist -17.1935
lhand -4.43777 -33.9181
lfingers 7.12502
lthumb 21.3335 -5.07238
rfemur 2.37357 20.0691 33.1749
rtibia -2.41648e-014
rfoot -13.157 -35.1464
rtoes 7.20376
lfemur -13.2509 5.1104 -10.7255
ltibia 70.6084
lfoot -1.51881 2.29661
ltoes -13.3161
1437
root 9.55323 15.5983 -23.6105 359.727 6.79547 -365.291
lowerback 6.94587 0.0922352 4.46867
upperback -4.29936 0.869848 3.37411
thorax -8.45189 0.282972 0.940718
lowerneck -6.53687 -4.57115 -4.34498
upperneck 5.14594 -5.92764 3.21954
head 3.0628 -2.92093 1.52561
rclavicle -1.19271e-015 5.56597e-015
rhumerus -41.0249 -3.1081 -74.0325
rradius 31.8071
rwrist 16.8216
rhand 1.61236 -54.0995
rfingers 7.12502
rthumb 27.1338 -802.169
lclavicle -1.19271e-015 5.56597e-015
lhumerus -49.509 2.02584 82.4904
lradius 35.9757
lwrist -17.822
lhand -5.24097 -34.2101
lfingers 7.12502
lthumb 20.5619 -5.27905
rfemur 2.86939 20.1744 33.2603
rtibia -2.33572e-014
rfoot -13.1356 -35.1875
rtoes 7.44012
lfemur -14.5203 5.205 -11.0565
ltibia 71.8566
lfoot -2.11983 2.45003
ltoes -12.17
1438
root 9.53881 15.5878 -23.5188 359.71 6.66352 -365.023
lowerback 6.88152 0.251961 4.16715
upperback -4.24617 1.03555 3.26218
thorax -8.35376 0.378771 0.966284
lowerneck -6.31453 -4.72244 -4.38827
upperneck 5.21004 -6.14125 3.27958
head 3.05615 -3.02802 1.54562
rclavicle -1.19271e-015 -1.98785e-014
rhumerus -40.3837 -3.38214 -73.8753
rradius 30.924
rwrist 17.3374
rhand -0.792979 -53.2599
rfingers 7.12502
rthumb 24.8306 -801.668
lclavicle -1.19271e-015 -1.98785e-014
lhumerus -49.2621 2.95171 81.6314
lradius 35.2202
lwrist -18.48
lhand -6.06644 -34.3237
lfingers 7.12502
lthumb 19.7685 -5.30898
rfemur 3.35516 20.3081 33.2664
rtibia 3.18055e-014
rfoot -13.2361 -35.1252
rtoes 8.24598
lfemur -15.8271 5.24655 -11.5073
ltibia 72.9326
lfoot -2.63347 2.4318
ltoes -12.18
1439
root 9.52669 15.5799 -23.4287 359.719 6.56155 -364.785
lowerback 6.96608 0.398657 3.98612
upperback -4.27724 1.20864 3.11321
thorax -8.43314 0.467213 0.885388
lowerneck -6.12423 -4.84918 -4.53012
upperneck 5.31329 -6.32612 3.5259
head 3.08104 -3.11628 1.6456
rclavicle 7.45443e-016 1.90833e-014
rhumerus -39.8502 -4.16266 -73.415
rradius 30.2818
rwrist 19.9881
rhand 0.0833877 -54.4977
rfingers 7.12502
rthumb 25.6702 -802.787
lclavicle 7.45443e-016 1.90833e-014
lhumerus -49.3192 3.66273 80.8294
lradius 34.8777
lwrist -18.9686
lhand -6.78359 -34.0079
lfingers 7.12502
lthumb 19.079 -4.92369
rfemur 3.79364 20.4173 33.281
rtibia 5.96354e-015
rfoot -13.6493 -35.0545
rtoes 9.45728
lfemur -17.1649 5.23884 -11.9653
ltibia 73.8221
lfoot -3.32414 2.4566
ltoes -13.9737
1440
root 9.51553 15.5727 -23.3365 359.644 6.49815 -364.715
lowerback 7.05609 0.441387 3.97516
upperback -4.19959 1.26353 3.07737
thorax -8.39999 0.494164 0.84448
lowerneck -6.23377 -4.89074 -4.83908
upperneck 5.43375 -6.37058 3.78101
head 3.17123 -3.13506 1.78014
rclavicle -3.47873e-015 2.46493e-014
rhumerus -39.0745 -4.48598 -73.2129
rradius 29.7384
rwrist 21.7216
rhand 0.13095 -55.4204
rfingers 7.12502
rthumb 25.7158 -803.703
lclavicle -3.47873e-015 2.46493e-014
lhumerus -49.3371 4.68098 80.0358
lradius 34.7798
lwrist -19.3625
lhand -7.34058 -33.3352
lfingers 7.12502
lthumb 18.5432 -4.19905
rfemur 4.31083 20.4716 33.5106
rtibia -4.27387e-014
rfoot -14.2051 -35.07
rtoes 10.598
lfemur -18.3707 5.1571 -12.2547
ltibia 74.5225
lfoot -4.2247 2.61261
ltoes -15.6994
1441
root 9.50337 15.5666 -23.2433 359.525 6.39094 -364.693
lowerback 7.1275 0.51175 4.00248
upperback -4.12113 1.35664 3.02068
thorax -8.3532 0.537102 0.754728
lowerneck -6.05902 -4.9547 -4.99865
upperneck 5.40012 -6.46047 3.93749
head 3.14559 -3.17962 1.8596
rclavicle 9.39258e-015 2.70347e-014
rhumerus -38.3692 -4.80417 -73.1322
rradius 29.2737
rwrist 22.9912
rhand -0.413135 -56.2552
rfingers 7.12502
rthumb 25.1946 -804.612
lclavicle 9.39258e-015 2.70347e-014
lhumerus -49.3505 5.54975 79.2172
lradius 34.6414
lwrist -19.6637
lhand -7.59723 -32.6422
lfingers 7.12502
lthumb 18.2963 -3.48265
rfemur 3.39999 20.6044 33.877
rtibia 3.03904
rfoot -16.4893 -35.0444
rtoes 11.6284
lfemur -19.4353 5.04399 -12.4892
ltibia 75.0326
lfoot -5.11052 2.84464
ltoes -15.2127
1442
root 9.49224 15.5594 -23.1528 359.501 6.29873 -364.595
lowerback 7.1825 0.624212 3.99168
upperback -4.14507 1.49971 2.87783
thorax -8.40477 0.601736 0.588813
lowerneck -5.62611 -5.0427 -5.0624
upperneck 5.28207 -6.60331 4.12645
head 3.04232 -3.25042 1.93583
rclavicle 1.84373e-014 -1.15295e-014
rhumerus -37.8087 -5.28232 -73.084
rradius 28.8269
rwrist 24.3546
rhand -0.776677 -56.9653
rfingers 7.12502
rthumb 24.8462 -805.371
lclavicle 1.84373e-014 -1.15295e-014
lhumerus -49.4468 6.2121 78.378
lradius 34.4254
lwrist -20.0162
lhand -7.78766 -32.1683
lfingers 7.12502
lthumb 18.1131 -2.99166
rfemur 2.66749 20.7385 34.1063
rtibia 5.46958
rfoot -17.9581 -35.224
rtoes 11.6606
lfemur -20.6062 4.87402 -12.8385
ltibia 75.3828
lfoot -5.83864 3.16769
ltoes -14.4386
1443
root 9.48372 15.5468 -23.062 359.545 6.22684 -364.466
lowerback 7.10328 0.703728 3.94809
upperback -4.10301 1.58545 2.76615
thorax -8.30816 0.643927 0.483358
lowerneck -5.52421 -5.14288 -5.15293
upperneck 5.28426 -6.74117 4.2144
head 3.03962 -3.31911 1.97621
rclavicle 2.5842e-015 -1.63003e-014
rhumerus -37.173 -5.48784 -73.1481
rradius 28.7284
rwrist 25.0217
rhand -0.520381 -57.7547
rfingers 7.12502
rthumb 25.0918 -806.126
lclavicle 2.5842e-015 -1.63003e-014
lhumerus -49.427 7.04547 77.6267
lradius 34.2726
lwrist -20.3916
lhand -7.62116 -31.812
lfingers 7.12502
lthumb 18.2733 -2.65036
rfemur 2.26633 20.8568 34.2488
rtibia 7.0122
rfoot -18.3511 -35.6462
rtoes 10.9734
lfemur -21.8439 4.65065 -13.2612
ltibia 75.5625
lfoot -6.64783 3.50467
ltoes -14.6995
1444
root 9.47562 15.5351 -22.9708 359.558 6.14518 -364.279
lowerback 7.03607 0.774804 3.84309
upperback -4.00425 1.65165 2.65658
thorax -8.15889 0.68126 0.417318
lowerneck -5.5212 -5.21709 -5.28921
upperneck 5.27954 -6.83613 4.30936
head 3.05384 -3.36606 2.02742
rclavicle -6.55989e-015 2.94201e-014
rhumerus -36.5308 -5.53287 -73.2952
rradius 28.928
rwrist 25.0871
rhand -0.139659 -58.6087
rfingers 7.12502
rthumb 25.4566 -806.929
lclavicle -6.55989e-015 2.94201e-014
lhumerus -49.329 7.78667 77.0371
lradius 34.2064
lwrist -20.6017
lhand -7.07344 -30.362
lfingers 7.12502
lthumb 18.8002 -1.25053
rfemur 2.09417 20.9696 34.3408
rtibia 8.16788
rfoot -18.5055 -35.879
rtoes 11.4019
lfemur -22.9536 4.40611 -13.7628
ltibia 75.559
lfoot -7.62631 3.85808
ltoes -13.9554
1445
root 9.46868 15.5283 -22.8789 359.493 5.92558 -364.139
lowerback 7.15438 0.902394 3.86353
upperback -3.95265 1.81709 2.49949
thorax -8.16254 0.755908 0.215057
lowerneck -5.49554 -5.26631 -5.39017
upperneck 5.34775 -6.90682 4.44646
head 3.08815 -3.39919 2.08792
rclavicle 3.01159e-014 5.52621e-014
rhumerus -35.9877 -5.82156 -73.3708
rradius 28.8941
rwrist 25.9264
rhand 0.266983 -58.7646
rfingers 7.12502
rthumb 25.8461 -807.028
lclavicle 3.01159e-014 5.52621e-014
lhumerus -49.3402 8.05492 76.6623
lradius 34.315
lwrist -20.3224
lhand -6.91457 -28.2038
lfingers 7.12502
lthumb 18.953 0.892835
rfemur 2.1629 21.1924 34.4963
rtibia 9.08548
rfoot -19.1044 -35.8152
rtoes 13.3725
lfemur -23.9336 4.24588 -14.2178
ltibia 75.3566
lfoot -8.31854 4.38139
ltoes -13.2178
